<svg width="36" height="41" viewBox="0 0 36 41" fill="none" xmlns="http://www.w3.org/2000/svg">
<rect width="36" height="40.2207" transform="matrix(1 0 0 -1 0 40.6689)" fill="white"/>
<path fill-rule="evenodd" clip-rule="evenodd" d="M13.8 26.5918C14.794 26.5918 15.5999 27.4921 15.5999 28.6028C15.5999 29.7134 14.794 30.6138 13.8 30.6138C12.8059 30.6138 12 29.7134 12 28.6028C12 27.4921 12.8059 26.5918 13.8 26.5918ZM15.5999 20.5597C15.5999 19.4491 14.794 18.5487 13.8 18.5487C12.8059 18.5487 12 19.4491 12 20.5597C12 21.6704 12.8059 22.5707 13.8 22.5707C14.794 22.5707 15.5999 21.6704 15.5999 20.5597ZM22.799 20.5597C22.799 19.4491 21.9931 18.5487 20.999 18.5487C20.0049 18.5487 19.199 19.4491 19.199 20.5597C19.199 21.6704 20.0049 22.5707 20.999 22.5707C21.9931 22.5707 22.799 21.6704 22.799 20.5597ZM15.5999 12.5145C15.5999 11.4038 14.794 10.5035 13.8 10.5035C12.8059 10.5035 12 11.4038 12 12.5145C12 13.6251 12.8059 14.5255 13.8 14.5255C14.794 14.5255 15.5999 13.6251 15.5999 12.5145ZM20.999 26.5918C21.9931 26.5918 22.799 27.4921 22.799 28.6028C22.799 29.7134 21.9931 30.6138 20.999 30.6138C20.0049 30.6138 19.199 29.7134 19.199 28.6028C19.199 27.4921 20.0049 26.5918 20.999 26.5918ZM22.799 12.5145C22.799 11.4038 21.9931 10.5035 20.999 10.5035C20.0049 10.5035 19.199 11.4038 19.199 12.5145C19.199 13.6251 20.0049 14.5255 20.999 14.5255C21.9931 14.5255 22.799 13.6251 22.799 12.5145Z" fill="#565656"/>
</svg>
