<svg width="20" height="20" viewBox="0 0 20 20" fill="none" xmlns="http://www.w3.org/2000/svg">
<path d="M7.48911 16.4L14.1113 9.99996L7.48911 3.59996C7.11325 3.2379 6.51505 3.24909 6.15299 3.62496C5.79094 4.00082 5.80213 4.59901 6.17799 4.96107L11.3947 9.99996L6.17799 15.0444C5.80213 15.4065 5.79094 16.0047 6.15299 16.3805C6.51505 16.7564 7.11325 16.7676 7.48911 16.4055V16.4Z" fill="#737373"/>
<mask id="mask0_5508_2687" style="mask-type:alpha" maskUnits="userSpaceOnUse" x="5" y="3" width="10" height="14">
<path d="M7.48911 16.4L14.1113 9.99996L7.48911 3.59996C7.11325 3.2379 6.51505 3.24909 6.15299 3.62496C5.79094 4.00082 5.80213 4.59901 6.17799 4.96107L11.3947 9.99996L6.17799 15.0444C5.80213 15.4065 5.79094 16.0047 6.15299 16.3805C6.51505 16.7564 7.11325 16.7676 7.48911 16.4055V16.4Z" fill="white"/>
</mask>
<g mask="url(#mask0_5508_2687)">
<rect x="20" width="20" height="20" transform="rotate(90 20 0)" fill="#737373"/>
</g>
</svg>
