<svg width="24" height="24" viewBox="0 0 24 24" fill="none" xmlns="http://www.w3.org/2000/svg">
<path fill-rule="evenodd" clip-rule="evenodd" d="M3.99984 4.00008H14.6665V6.66675H15.9998V4.00008C15.9998 3.2637 15.4029 2.66675 14.6665 2.66675H3.99984C3.26346 2.66675 2.6665 3.2637 2.6665 4.00008V14.6667C2.6665 15.4031 3.26346 16.0001 3.99984 16.0001H6.6665V14.6667H3.99984V4.00008ZM9.33317 8.00008H19.9998C20.7362 8.00008 21.3332 8.59703 21.3332 9.33342V20.0001C21.3332 20.7365 20.7362 21.3334 19.9998 21.3334H9.33317C8.59679 21.3334 7.99984 20.7365 7.99984 20.0001V9.33342C7.99984 8.59703 8.59679 8.00008 9.33317 8.00008ZM9.33317 20.0001H19.9998V9.33341H9.33317V20.0001ZM15.3332 18.6667H13.9998V15.3334H10.6665V14.0001H13.9998V10.6667H15.3332V14.0001H18.6665V15.3334H15.3332V18.6667Z" fill="#0079B8"/>
</svg>
