<svg width="24" height="24" viewBox="0 0 24 24" fill="none" xmlns="http://www.w3.org/2000/svg">
<path fill-rule="evenodd" clip-rule="evenodd" d="M15.3332 3.90659H14.0665V2.66659H9.93317V3.90659H8.6665V2.66659C8.66561 1.95547 9.22295 1.36881 9.93317 1.33325H14.0665C14.7767 1.36881 15.3341 1.95547 15.3332 2.66659V3.90659ZM8.6665 8.66659H9.99984V18.6666H8.6665V8.66659ZM15.3332 8.66659H13.9998V18.6666H15.3332V8.66659ZM20.5198 5.99992H3.33317C2.96498 5.99992 2.6665 5.70144 2.6665 5.33325C2.6665 4.96506 2.96498 4.66658 3.33317 4.66658H20.5198C20.888 4.66658 21.1865 4.96506 21.1865 5.33325C21.1865 5.70144 20.888 5.99992 20.5198 5.99992ZM5.9065 22.6666H18.0932C18.6113 22.6544 19.1033 22.4367 19.4609 22.0616C19.8185 21.6865 20.0124 21.1847 19.9998 20.6666V7.48658H18.6665V20.6666C18.6794 20.8311 18.6261 20.994 18.5185 21.1191C18.4108 21.2443 18.2578 21.3213 18.0932 21.3333H5.9065C5.74189 21.3213 5.58883 21.2443 5.48121 21.1191C5.3736 20.994 5.32032 20.8311 5.33317 20.6666V7.48658H3.99984V20.6666C3.98731 21.1847 4.18119 21.6865 4.53879 22.0616C4.89639 22.4367 5.3884 22.6544 5.9065 22.6666Z" fill="#737373"/>
</svg>
