<svg width="20" height="20" viewBox="0 0 20 20" fill="none" xmlns="http://www.w3.org/2000/svg">
<path d="M3.60017 7.48886L10.0002 14.1111L16.4002 7.48886C16.7622 7.113 16.751 6.5148 16.3752 6.15275C15.9993 5.7907 15.4011 5.80189 15.0391 6.17775L10.0002 11.3944L4.95572 6.17775C4.59367 5.80189 3.99547 5.7907 3.61961 6.15275C3.24375 6.5148 3.23256 7.113 3.59461 7.48886L3.60017 7.48886Z" fill="#737373"/>
<mask id="mask0_5508_3589" style="mask-type:alpha" maskUnits="userSpaceOnUse" x="3" y="5" width="14" height="10">
<path d="M3.60017 7.48886L10.0002 14.1111L16.4002 7.48886C16.7622 7.113 16.751 6.5148 16.3752 6.15275C15.9993 5.7907 15.4011 5.80189 15.0391 6.17775L10.0002 11.3944L4.95572 6.17775C4.59367 5.80189 3.99547 5.7907 3.61961 6.15275C3.24375 6.5148 3.23256 7.113 3.59461 7.48886L3.60017 7.48886Z" fill="white"/>
</mask>
<g mask="url(#mask0_5508_3589)">
<rect x="20" y="20" width="20" height="20" transform="rotate(-180 20 20)" fill="#737373"/>
</g>
</svg>
